<svg xmlns="http://www.w3.org/2000/svg" viewBox="0 0 566.03 183.69"><defs><style>.cls-1{font-size:138px;font-family:Knockout-HTF49-Liteweight, Knockout HTF49-Liteweight;font-style:italic;letter-spacing:-0.04em;}.cls-1,.cls-5,.cls-7{fill:#007f61;}.cls-2{letter-spacing:-0.03em;}.cls-3{letter-spacing:-0.04em;}.cls-4{letter-spacing:-0.04em;}.cls-5{stroke:#007f61;stroke-miterlimit:10;stroke-width:9px;}.cls-6{fill:#de1817;}</style></defs><g id="Lag_2" data-name="Lag 2"><g id="Layer_1" data-name="Layer 1"><text class="cls-1" transform="translate(0 114.95) scale(0.87 1)">fo<tspan class="cls-2" x="74.79" y="0">r</tspan><tspan x="108.05" y="0">tsæt snak</tspan><tspan class="cls-3" x="471.26" y="0">k</tspan><tspan class="cls-4" x="515.69" y="0">en</tspan></text><line class="cls-5" x1="3.53" y1="123.59" x2="525.53" y2="123.52"/><rect class="cls-6" x="530.38" y="118.64" width="9.56" height="9"/><rect class="cls-6" x="543.42" y="118.64" width="9.56" height="9"/><rect class="cls-6" x="556.47" y="118.64" width="9.56" height="9"/><path class="cls-7" d="M55.73,152.89h3l-3.94,21.8h-3Zm1.75-9.77h3l-.84,4.71h-3Z"/><path class="cls-7" d="M70.31,168.14c.2,2.27,1.39,4.1,4.35,4.1,2.5,0,3.8-1.45,3.8-3.53s-1.22-3-3.86-4.11c-4-1.65-5.23-3.3-5.23-5.82,0-3.39,2.22-6.32,6.7-6.32,4.83,0,6.64,3.16,6.56,6.29H79.54c-.13-1.53-.74-3.45-3.75-3.45a3,3,0,0,0-3.34,3.08c0,1.54,1.06,2.26,3.69,3.38,3.91,1.63,5.5,3.46,5.5,6.5,0,4.35-3,6.86-7.43,6.86-4.73,0-7-2.9-7-7Z"/><path class="cls-7" d="M98,169.29c-.32,1.82-.77,4.52-.87,5.4h-3c.06-.79.26-2.13.48-3.35a6.49,6.49,0,0,1-6.31,3.78c-3.74,0-5.12-2.89-5.12-5.48,0-6.22,5-7.58,8.71-8,1.93-.2,3.57-.2,4.51-.24l.24-1.48c.35-2.06.23-4.7-3.34-4.7-3.12,0-4,1.92-4.54,3.59h-3.1c.63-3.24,2.69-6.35,7.92-6.35,4.27,0,7,2.26,6.09,7.49ZM96,164c-1,0-2.24.05-3.82.23-3,.38-5.71,1.33-5.71,4.83a2.82,2.82,0,0,0,3,3.06c4.06,0,5.66-3.72,6.47-7.78Z"/><path class="cls-7" d="M104.11,159c.36-2.05.72-4,1-6.11h3c-.05.57-.28,2.28-.49,3.38,1.17-2.06,2.73-3.81,5.59-3.81,2.57,0,4,1.33,4.3,4,1.29-2.14,3.14-4,6.21-4s5.52,2.12,4.42,8.1l-2.55,14.13h-3L125.08,161c.48-2.53.4-5.37-2.6-5.37s-4.62,3-5.28,6.69L115,174.69h-3l2.41-13.33c.62-3.38.3-5.75-2.42-5.75-3,0-4.82,3.2-5.5,7.08l-2.16,12h-3Z"/><path class="cls-7" d="M132.65,159c.37-2.05.73-4,1-6.11h3c0,.57-.28,2.28-.5,3.38,1.18-2.06,2.74-3.81,5.59-3.81,2.57,0,4,1.33,4.31,4,1.29-2.14,3.13-4,6.2-4s5.52,2.12,4.42,8.1l-2.55,14.13h-3L153.63,161c.47-2.53.4-5.37-2.61-5.37s-4.62,3-5.28,6.69l-2.25,12.41h-3l2.42-13.33c.61-3.38.29-5.75-2.42-5.75-3,0-4.83,3.2-5.51,7.08l-2.15,12h-3Z"/><path class="cls-7" d="M172.84,169.29c-.32,1.82-.77,4.52-.87,5.4h-3c.06-.79.26-2.13.48-3.35a6.49,6.49,0,0,1-6.3,3.78c-3.75,0-5.12-2.89-5.12-5.48,0-6.22,5-7.58,8.7-8,1.93-.2,3.58-.2,4.51-.24l.25-1.48c.35-2.06.22-4.7-3.34-4.7-3.13,0-4,1.92-4.55,3.59h-3.1c.64-3.24,2.7-6.35,7.92-6.35,4.27,0,7,2.26,6.09,7.49Zm-2-5.25c-1,0-2.24.05-3.82.23-3,.38-5.71,1.33-5.71,4.83a2.82,2.82,0,0,0,3,3.06c4.06,0,5.66-3.72,6.47-7.78Z"/><path class="cls-7" d="M178.88,159.34c.38-2.13.77-4.44,1.08-6.45h2.93c0,.56-.33,2.74-.68,4.61,1.35-3.08,3.69-5,6.53-5l-.67,3.7c-3.55.3-6.22,3.43-7.1,8.32l-1.84,10.21h-3Z"/><path class="cls-7" d="M193,143.12h3l-2.36,13a7,7,0,0,1,6.07-3.71c3.81,0,6,3,6,8.06,0,6.83-3.12,14.6-9.82,14.6a5,5,0,0,1-5.09-3.4c-.21,1.07-.49,2.44-.63,3h-3c.2-1,.61-3.13,1.11-5.81Zm9.59,17.73c0-3.43-1.27-5.27-3.89-5.27-3.53,0-5.78,3.75-6.58,8.3-.88,5.06.28,8.17,3.86,8.17C200.54,172.05,202.62,165.64,202.62,160.85Z"/><path class="cls-7" d="M210.42,164.32a18.16,18.16,0,0,0-.16,2.08c0,3.68,1.49,5.75,4.11,5.75s4-1.77,4.8-3.6h3.17c-1.22,3.38-3.49,6.57-8.32,6.57-4.66,0-6.83-3.62-6.83-8.66,0-6.14,2.86-14,9.73-14,5,0,6.66,3.82,6.66,7.78a17.16,17.16,0,0,1-.47,4.08Zm10.09-2.7a8.8,8.8,0,0,0,.12-1.58c0-3-1.19-4.69-3.88-4.69s-4.88,2.29-5.82,6.27Z"/><path class="cls-7" d="M231.65,152.89l-4.21,23.2c-.9,4.92-2.25,7.6-6.11,7.6a10.86,10.86,0,0,1-1.78-.17l.67-3.1a5.88,5.88,0,0,0,.9.08c2.2,0,2.73-1.38,3.33-4.76l4.16-22.85Zm-2.12-5.06.84-4.71h3l-.84,4.71Z"/><path class="cls-7" d="M252.7,143.12l-4.6,25.5c-.37,2-.75,4.11-1,6.07h-2.95c0-.64.25-2.06.49-3.45a6.55,6.55,0,0,1-6.16,3.88c-4,0-6-3.52-6-8.48,0-6.41,3.25-14.18,9.74-14.18a5.14,5.14,0,0,1,5.19,3.38l2.3-12.72ZM235.61,166.3c0,3.86,1.45,5.69,3.89,5.69,3.86,0,5.86-4.07,6.68-8.92.8-4.56-.38-7.48-4-7.48C237.88,155.59,235.61,161.51,235.61,166.3Z"/><path class="cls-7" d="M255,164.32a16.14,16.14,0,0,0-.16,2.08c0,3.68,1.49,5.75,4.11,5.75s4-1.77,4.8-3.6h3.17c-1.22,3.38-3.49,6.57-8.32,6.57-4.67,0-6.83-3.62-6.83-8.66,0-6.14,2.86-14,9.73-14,5,0,6.66,3.82,6.66,7.78a17.16,17.16,0,0,1-.47,4.08Zm10.09-2.7a8.8,8.8,0,0,0,.12-1.58c0-3-1.19-4.69-3.88-4.69s-4.88,2.29-5.82,6.27Z"/><path class="cls-7" d="M279.56,159c.37-2.05.72-4,1-6.11h3c-.05.57-.28,2.28-.5,3.38,1.18-2.06,2.74-3.81,5.59-3.81,2.57,0,4,1.33,4.31,4,1.28-2.14,3.13-4,6.2-4s5.52,2.12,4.42,8.1l-2.55,14.13h-3L300.54,161c.47-2.53.4-5.37-2.61-5.37s-4.62,3-5.28,6.69l-2.25,12.41h-3l2.42-13.33c.61-3.38.29-5.75-2.42-5.75-3,0-4.83,3.2-5.51,7.08l-2.16,12h-3Z"/><path class="cls-7" d="M309.05,164.32a16.14,16.14,0,0,0-.16,2.08c0,3.68,1.49,5.75,4.1,5.75s4-1.77,4.81-3.6H321c-1.22,3.38-3.49,6.57-8.31,6.57-4.67,0-6.84-3.62-6.84-8.66,0-6.14,2.86-14,9.74-14,5,0,6.65,3.82,6.65,7.78a17.14,17.14,0,0,1-.46,4.08Zm10.08-2.7a8.8,8.8,0,0,0,.12-1.58c0-3-1.19-4.69-3.87-4.69s-4.88,2.29-5.83,6.27Z"/><path class="cls-7" d="M343.87,143.12l-4.6,25.5c-.36,2-.74,4.11-1,6.07h-3c0-.64.26-2.06.5-3.45a6.57,6.57,0,0,1-6.17,3.88c-4,0-6-3.52-6-8.48,0-6.41,3.25-14.18,9.74-14.18a5.13,5.13,0,0,1,5.18,3.38l2.3-12.72ZM326.78,166.3c0,3.86,1.45,5.69,3.9,5.69,3.86,0,5.86-4.07,6.67-8.92.81-4.56-.37-7.48-4-7.48C329.06,155.59,326.78,161.51,326.78,166.3Z"/><path class="cls-7" d="M368.71,161.47c0,5.75-2.78,13.65-9.92,13.65-4.5,0-7-3.34-7-8.79,0-6,3.15-13.87,9.86-13.87C365.9,152.46,368.71,155.67,368.71,161.47Zm-13.77,4.85c0,3.64,1.48,5.82,4.18,5.82,4.47,0,6.44-6.22,6.44-10.81,0-3.68-1.35-5.89-4.19-5.89C357.06,155.44,354.94,161.65,354.94,166.32Z"/><path class="cls-7" d="M372.35,159.34c.38-2.13.77-4.44,1.08-6.45h2.92c0,.56-.32,2.74-.68,4.61,1.36-3.08,3.7-5,6.54-5l-.67,3.7c-3.55.3-6.22,3.43-7.1,8.32l-1.84,10.21h-3Z"/><path class="cls-7" d="M395.88,172.54c-1.25,6.91-3.09,11.15-9.52,11.15-6.18,0-6.93-4.06-6.92-6.6h3.06c0,2,1.19,3.73,4.19,3.73,3.93,0,5.17-3.1,6.17-8.24l.38-1.94c-1.27,2.45-3.19,4-6,4-3.71,0-6.05-3-6.05-8.38,0-6.47,3.32-13.75,9.41-13.75,3.24,0,4.89,1.92,5.25,3.53.22-1,.57-2.48.77-3.1h2.91c-.36,1.72-.76,3.85-1.11,5.78ZM384.37,166c0,3.68,1.37,5.55,3.9,5.55,3.45,0,5.56-3.76,6.41-8.32.78-4.17-.07-7.65-3.91-7.65C386.61,155.53,384.37,160.84,384.37,166Z"/><path class="cls-7" d="M414.12,169.29c-.32,1.82-.78,4.52-.87,5.4h-3c.07-.79.27-2.13.49-3.35a6.49,6.49,0,0,1-6.31,3.78c-3.74,0-5.12-2.89-5.12-5.48,0-6.22,5-7.58,8.7-8,1.94-.2,3.58-.2,4.52-.24l.24-1.48c.35-2.06.22-4.7-3.34-4.7-3.12,0-4,1.92-4.54,3.59h-3.1c.63-3.24,2.69-6.35,7.92-6.35,4.27,0,7,2.26,6.09,7.49Zm-2-5.25c-1,0-2.24.05-3.82.23-3,.38-5.72,1.33-5.72,4.83a2.83,2.83,0,0,0,3,3.06c4.06,0,5.66-3.72,6.46-7.78Z"/><path class="cls-7" d="M420.31,158.42c.33-1.89.65-3.72.93-5.53h3c-.06.68-.43,3.13-.57,3.72,1.06-2,2.86-4.15,6.26-4.15s5.77,2.4,4.62,8.59l-2.44,13.64h-3l2.43-13.53c.6-3.29,0-5.55-2.86-5.55-3.46,0-5.44,3.72-6.24,8.18l-2,10.9h-3Z"/><path class="cls-7" d="M440.21,152.89h3l-3.94,21.8h-3Zm1.75-9.77h3l-.84,4.71h-3Z"/><path class="cls-7" d="M446.17,168.14c.2,2.27,1.39,4.1,4.35,4.1,2.49,0,3.8-1.45,3.8-3.53s-1.22-3-3.86-4.11c-4-1.65-5.24-3.3-5.24-5.82,0-3.39,2.22-6.32,6.71-6.32,4.83,0,6.63,3.16,6.56,6.29H455.4c-.13-1.53-.74-3.45-3.75-3.45a3,3,0,0,0-3.34,3.08c0,1.54,1.06,2.26,3.69,3.38,3.91,1.63,5.5,3.46,5.5,6.5,0,4.35-3,6.86-7.43,6.86-4.73,0-7-2.9-7-7Z"/><path class="cls-7" d="M473.89,169.29c-.32,1.82-.78,4.52-.87,5.4h-3c.06-.79.27-2.13.48-3.35a6.47,6.47,0,0,1-6.3,3.78c-3.74,0-5.12-2.89-5.12-5.48,0-6.22,5-7.58,8.7-8,1.94-.2,3.58-.2,4.52-.24l.24-1.48c.35-2.06.22-4.7-3.34-4.7-3.13,0-4,1.92-4.55,3.59h-3.1c.64-3.24,2.7-6.35,7.93-6.35,4.27,0,7,2.26,6.09,7.49Zm-2-5.25c-1,0-2.24.05-3.82.23-3,.38-5.72,1.33-5.72,4.83a2.83,2.83,0,0,0,3,3.06c4.06,0,5.66-3.72,6.46-7.78Z"/><path class="cls-7" d="M478.45,152.89h3.09l1.14-6.3h3l-1.14,6.3h4l-.56,2.93h-4L481.65,169c-.36,2-.27,3,1.34,3a8.43,8.43,0,0,0,1.84-.18l-.55,2.81a7,7,0,0,1-2.59.37c-2.93,0-3.86-1.66-3.21-5.28L481,155.82h-3.08Z"/><path class="cls-7" d="M490.8,152.89h3l-3.94,21.8h-3Zm1.76-9.77h3l-.84,4.71h-3Z"/><path class="cls-7" d="M511.55,161.47c0,5.75-2.78,13.65-9.93,13.65-4.49,0-7-3.34-7-8.79,0-6,3.15-13.87,9.87-13.87C508.74,152.46,511.55,155.67,511.55,161.47Zm-13.78,4.85c0,3.64,1.48,5.82,4.19,5.82,4.47,0,6.44-6.22,6.44-10.81,0-3.68-1.36-5.89-4.19-5.89C499.9,155.44,497.77,161.65,497.77,166.32Z"/><path class="cls-7" d="M515.33,158.42c.34-1.89.65-3.72.93-5.53h3c-.06.68-.43,3.13-.57,3.72,1.06-2,2.85-4.15,6.26-4.15s5.76,2.4,4.62,8.59l-2.44,13.64h-3l2.42-13.53c.61-3.29,0-5.55-2.85-5.55-3.46,0-5.44,3.72-6.24,8.18l-2,10.9h-3Z"/><path class="cls-7" d="M535.06,164.32a16.14,16.14,0,0,0-.16,2.08c0,3.68,1.49,5.75,4.1,5.75s4-1.77,4.81-3.6H547c-1.22,3.38-3.49,6.57-8.32,6.57-4.66,0-6.83-3.62-6.83-8.66,0-6.14,2.86-14,9.73-14,5,0,6.66,3.82,6.66,7.78a17.16,17.16,0,0,1-.47,4.08Zm10.09-2.7a8.8,8.8,0,0,0,.12-1.58c0-3-1.19-4.69-3.88-4.69s-4.88,2.29-5.82,6.27Z"/><path class="cls-7" d="M551.8,159.34c.38-2.13.78-4.44,1.08-6.45h2.93c0,.56-.33,2.74-.68,4.61,1.35-3.08,3.69-5,6.53-5l-.67,3.7c-3.55.3-6.22,3.43-7.1,8.32l-1.84,10.21h-3Z"/></g></g></svg>