<?xml version="1.0" encoding="utf-8"?>
<!-- Generator: Adobe Illustrator 25.4.1, SVG Export Plug-In . SVG Version: 6.00 Build 0)  -->
<svg version="1.1" id="Layer_1" xmlns="http://www.w3.org/2000/svg" xmlns:xlink="http://www.w3.org/1999/xlink" x="0px" y="0px"
	 viewBox="0 0 332 275" style="enable-background:new 0 0 332 275;" xml:space="preserve">
<style type="text/css">
	.st0{fill:#D1F748;}
	.st1{fill:#DE1817;}
</style>
<g>
	<path class="st0" d="M17.7,227.4h14.8c3.6,0,6.4-0.7,9-3.7v16.1c-2.3,2.5-4.8,3.4-9,3.4H17.7v8.1h-5.3v-8.8H7.3l-1.7-15.1h6.8v-9.6
		h5.3V227.4z"/>
	<path class="st0" d="M41.9,194.7c0,13-3.7,21.9-9.3,21.9H20.9c-5.5,0-9.3-9-9.3-21.9c0-13.1,3.8-21.3,9.3-21.3h6.5v28.1h6.3
		c1.8,0,3.1-2.4,3.1-6.9c0-4.9-1.2-7-3.1-7h-2.9v-14.2h1.9C38.3,173.4,41.9,181.6,41.9,194.7z M19.9,187.9c-1.9,0-3.1,2.4-3.1,6.7
		c0,4.3,1.2,6.9,3.1,6.9h4.4v-13.6H19.9z"/>
	<path class="st0" d="M41.9,127.3c0,5.8-1.1,10.2-3.7,11.6c2.4,3.4,3.7,9,3.7,16c0,9.4-2.8,16.3-7.5,16.3h-0.9
		c-5.9,0-8.2-12.1-9.9-28.8h-4.2c-1.6,0-2.6,1.9-2.6,6.1c0,4.3,0.9,5.8,2.7,5.8h2.1v14.3h-1.8c-4.7,0-8.3-6.6-8.3-20.9
		s3.8-20.6,8.9-20.6h15.3c1,0,1.5-1,1.5-3.6h4.6V127.3z M27.7,142.4c0.9,9.4,2.3,13.9,5,13.9h1.7c1.6,0,2.8-2.1,2.8-6
		c0-4.3-1.3-7.9-3.1-7.9H27.7z"/>
	<path class="st0" d="M17.7,100.6h14.8c3.6,0,6.4-0.7,9-3.7v16.1c-2.3,2.5-4.8,3.4-9,3.4H17.7v8.1h-5.3v-8.8H7.3l-1.7-15.1h6.8V91
		h5.3V100.6z"/>
	<path class="st0" d="M41.9,67.9c0,13-3.7,21.9-9.3,21.9H20.9c-5.5,0-9.3-9-9.3-21.9c0-13.1,3.8-21.3,9.3-21.3h6.5v28.1h6.3
		c1.8,0,3.1-2.4,3.1-6.9c0-4.9-1.2-7-3.1-7h-2.9V46.5h1.9C38.3,46.5,41.9,54.7,41.9,67.9z M19.9,61c-1.9,0-3.1,2.4-3.1,6.7
		c0,4.3,1.2,6.9,3.1,6.9h4.4V61H19.9z"/>
	<path class="st0" d="M22.2,25.8h19.3v15.7H12.1V28.2l5-1c-4.4-2.8-6-9.3-5.3-18.1h6.7C17.8,21.4,19.6,25.8,22.2,25.8z"/>
</g>
<g>
	<path class="st1" d="M122.6,252.8l-2.6-19c-3.3,15.8-10.3,24.4-18.5,24.4c-16.7,0-25.9-28-25.9-62.4V71.1c0-32.6,10.6-62,28.8-62
		c18.2,0,27.9,28.3,27.9,62v24.7h-18V69.3c0-11.5-3-21.5-9.7-21.5c-6.7,0-9.9,10.4-9.9,22.2v127.2c0,11.8,3.5,22.2,10,22.2
		c6.7,0,10-10.4,10-22.2v-33.3h-9.9v-32.3h28v121.1H122.6z"/>
	<path class="st1" d="M183.8,254.2c-7.4,0-10.3-14.3-10.3-35.1v-44.8c0-11.1-2.4-20.4-7.7-20.4h-9.9v98.9h-18.8V14.1h31.1
		c13.8,0,23,18.6,23,52v33.7c0,17.9-3.5,31.2-11.4,36.9c7.9,5,11.7,20.8,11.7,36.2v43.7c0,11.1,1.4,18.6,3.6,24.4v13.3H183.8z
		 M172.9,67.9c0-10.8-2-17.2-6.7-17.2h-10.3v70.2h9.5c4.9,0,7.4-6.1,7.4-19V67.9z"/>
	<path class="st1" d="M224.1,258.2c-17.6,0-28.6-27.2-28.6-65.2V74c0-37.6,11.1-64.9,28.6-64.9c17.7,0,28.6,27.2,28.6,64.9v119
		C252.8,230.9,241.9,258.2,224.1,258.2z M233.8,71.1c0-14-3.5-23.3-9.7-23.3c-6.1,0-9.5,9.3-9.5,23.3v124.7c0,14,3.5,23.3,9.5,23.3
		c6.2,0,9.7-9.3,9.7-23.3V71.1z"/>
	<path class="st1" d="M289.5,252.8h-31.8V14.1h31.5c13.8,0,22.3,17.6,22.3,50.5v25.8c0,20.4-3.3,35.8-12,40.1
		c9.1,5.7,12.4,20.4,12.4,40.5v31.2C311.9,235.6,303.3,252.8,289.5,252.8z M293.4,67.9c0-10.8-2-17.2-6.7-17.2h-10.2v65.6h9.4
		c4.9,0,7.4-6.1,7.4-18.6V67.9z M293.7,167.9c0-12.5-2.6-19-7.4-19h-9.7v67.4h10.6c4.7,0,6.5-6.1,6.5-17.2V167.9z"/>
</g>
</svg>
